Coordinates
version=1
nRows=14
nColumns=40
inDegrees=yes

Units are S.I. units (second, meters, Newtons, ...)
If the header above contains a line with 'inDegrees', this indicates whether rotational values are in degrees (yes) or radians (no).

endheader
time	pelvis_tilt	pelvis_list	pelvis_rotation	pelvis_tx	pelvis_ty	pelvis_tz	hip_flexion_r	hip_adduction_r	hip_rotation_r	knee_angle_r	knee_angle_r_beta	ankle_angle_r	subtalar_angle_r	mtp_angle_r	hip_flexion_l	hip_adduction_l	hip_rotation_l	knee_angle_l	knee_angle_l_beta	ankle_angle_l	subtalar_angle_l	mtp_angle_l	lumbar_extension	lumbar_bending	lumbar_rotation	arm_flex_r	arm_add_r	arm_rot_r	elbow_flex_r	pro_sup_r	wrist_flex_r	wrist_dev_r	arm_flex_l	arm_add_l	arm_rot_l	elbow_flex_l	pro_sup_l	wrist_flex_l	wrist_dev_l
      7.78333333	    -29.10617272	     -1.14096863	     -0.10751993	     -0.30941614	      1.19488177	      0.05438162	     84.31616445	     -4.51864093	     -0.13761912	     66.69205556	      1.16399595	     -2.86261117	    -27.94546572	      0.00000000	     67.98964965	     -9.43422979	      2.36373333	     74.40305565	      1.29857829	     -4.13839093	    -12.86059167	      0.00000000	    -46.95827998	      4.46512805	      0.49889616	     89.91755191	     -5.26952301	     11.99345158	     33.68359134	     86.79896061	      0.00000000	      0.00000000	     89.91425056	     -8.64287804	     19.30588270	     26.48415740	     78.88507970	      0.00000000	      0.00000000
      7.79166667	    -28.90352734	     -0.86456670	      0.22664235	     -0.30902962	      1.19507250	      0.05417300	     83.00568076	     -4.76433734	      0.06756352	     64.72929163	      1.12973926	     -3.59930919	    -28.03564772	      0.00000000	     68.71422867	     -9.05817831	      2.44716257	     76.32649097	      1.33214857	     -3.89930023	    -12.81319409	      0.00000000	    -47.12130162	      4.34481041	      0.05441820	     89.91616302	     -5.31940003	     11.98812798	     33.55431684	     86.77397367	      0.00000000	      0.00000000	     89.91598523	     -8.56815874	     19.20171373	     26.57791354	     78.95901339	      0.00000000	      0.00000000
      7.80000000	    -28.67681834	     -1.42902979	      0.46778876	     -0.30860715	      1.19531111	      0.05484308	     81.45130915	     -4.50101984	     -0.45764470	     62.57549411	      1.09214840	     -5.35720200	    -29.94755036	      0.00000000	     69.67275364	     -9.29749463	      3.29106795	     78.38585645	      1.36809128	     -3.42622542	    -12.12042402	      0.00000000	    -47.37068768	      4.78375762	      0.31624039	     89.91520613	     -5.39698033	     11.96531030	     33.52158811	     86.69427313	      0.00000000	      0.00000000	     89.91620322	     -8.45061526	     18.81474418	     26.65983671	     79.54178006	      0.00000000	      0.00000000
      7.80833333	    -28.49711299	     -1.04046253	      0.83363418	     -0.30814685	      1.19543399	      0.05447873	     80.13875871	     -4.82601604	     -0.11052998	     60.64162600	      1.05839604	     -6.02901813	    -29.70437905	      0.00000000	     70.43031616	     -8.79625222	      3.28670878	     80.25667509	      1.40074323	     -3.20998027	    -12.09311786	      0.00000000	    -47.49914743	      4.62095854	     -0.23517626	     89.91381818	     -5.43991686	     11.98888066	     33.33295031	     86.68521090	      0.00000000	      0.00000000	     89.91782088	     -8.40099286	     18.81061926	     26.73752578	     79.61051617	      0.00000000	      0.00000000
      7.81666667	    -28.30784559	     -0.72201369	      1.21309031	     -0.30765775	      1.19559463	      0.05415262	     78.79261218	     -5.14367661	      0.21549193	     58.71695155	      1.02480413	     -6.89849128	    -29.49965300	      0.00000000	     71.16840141	     -8.31899305	      3.36370627	     82.05280352	      1.43209158	     -2.88645483	    -12.03719461	      0.00000000	    -47.64035891	      4.51870632	     -0.73951464	     89.91235295	     -5.48700469	     12.01221806	     33.14922175	     86.66329380	      0.00000000	      0.00000000	     89.91917731	     -8.34290171	     18.80594564	     26.80285278	     79.68416097	      0.00000000	      0.00000000
      7.82500000	    -27.92796800	     -0.97860423	      1.73014107	     -0.30686981	      1.19590999	      0.05409069	     77.10363903	     -5.36683355	     -0.20526386	     56.73312518	      0.99017983	     -8.32406343	    -30.39961004	      0.00000000	     71.91871867	     -8.02980012	      3.99193475	     83.96628710	      1.46548817	     -2.33446250	    -11.93596596	      0.00000000	    -48.00167437	      4.93757376	     -0.86830930	     89.91037134	     -5.59342224	     12.04802721	     33.08303151	     86.56042254	      0.00000000	      0.00000000	     89.91984226	     -8.24618667	     18.69202397	     26.90950615	     80.05417097	      0.00000000	      0.00000000
      7.83333333	    -27.80261600	     -0.59652259	      2.05738323	     -0.30641326	      1.19595324	      0.05373223	     75.81046629	     -5.67826179	      0.13713301	     54.83129680	      0.95698666	     -9.12176807	    -30.06631619	      0.00000000	     72.74660175	     -7.53078213	      3.95839212	     85.70976313	      1.49591757	     -2.20741845	    -11.79073962	      0.00000000	    -48.07420629	      4.76314288	     -1.38420077	     89.90811225	     -5.63895613	     12.07345305	     32.84239155	     86.54876856	      0.00000000	      0.00000000	     89.92115633	     -8.17168691	     18.70288914	     26.96140306	     80.09999412	      0.00000000	      0.00000000
      7.84166667	    -27.61269406	     -0.78606403	      2.42659579	     -0.30588038	      1.19609914	      0.05383640	     74.30694608	     -5.73184482	     -0.06134505	     52.80015731	      0.92153659	    -10.79251197	    -30.70876569	      0.00000000	     73.71374121	     -7.35151214	      4.48418015	     87.50613520	      1.52727017	     -1.84254759	    -11.23748039	      0.00000000	    -48.24473469	      5.03188308	     -1.46463436	     89.90598168	     -5.73529331	     12.12777350	     32.74160878	     86.46751967	      0.00000000	      0.00000000	     89.92130122	     -8.09030462	     18.65020369	     27.00922910	     80.40111613	      0.00000000	      0.00000000
      7.85000000	    -27.40179388	     -0.48791716	      2.81154084	     -0.30524871	      1.19624544	      0.05348441	     72.87419175	     -6.07396686	      0.16789358	     50.93013311	      0.88889851	    -11.87502412	    -30.49429240	      0.00000000	     74.50353242	     -6.89038759	      4.48272947	     89.18694377	      1.55660582	     -1.56205321	    -11.13615747	      0.00000000	    -48.41278346	      4.95948679	     -1.94247409	     89.90292317	     -5.79752635	     12.19933103	     32.53558727	     86.45749057	      0.00000000	      0.00000000	     89.92236517	     -8.02460649	     18.70651477	     27.06083038	     80.48435608	      0.00000000	      0.00000000
      7.85833333	    -27.31796070	     -0.14870720	      3.16065946	     -0.30478091	      1.19632559	      0.05316105	     71.57186225	     -6.40949652	      0.46726853	     49.08472457	      0.85669006	    -12.71096946	    -30.17203167	      0.00000000	     75.41428741	     -6.40845374	      4.43417629	     90.79698358	      1.58470631	     -1.30877473	    -11.10288494	      0.00000000	    -48.45264863	      4.83737449	     -2.44050882	     89.90038988	     -5.83384797	     12.20863232	     32.28911890	     86.43261845	      0.00000000	      0.00000000	     89.92387839	     -7.96260855	     18.75433055	     27.01672191	     80.51688528	      0.00000000	      0.00000000
      7.86666667	    -27.17654533	      0.13499671	      3.53305454	     -0.30421141	      1.19642262	      0.05275979	     70.24023752	     -6.75260792	      0.68558356	     47.34178372	      0.82627000	    -13.83066492	    -29.87852186	      0.00000000	     76.28102370	     -5.91544975	      4.44119255	     92.37432743	      1.61223616	     -0.93286643	    -11.13691832	      0.00000000	    -48.55622319	      4.78405692	     -2.90998880	     89.89729389	     -5.87256546	     12.26649433	     32.07111933	     86.41386303	      0.00000000	      0.00000000	     89.92428915	     -7.92215125	     18.82782638	     27.05678072	     80.56133674	      0.00000000	      0.00000000
      7.87500000	    -27.06632121	     -0.29943596	      3.88737893	     -0.30377965	      1.19659507	      0.05293546	     68.71252265	     -6.61769513	      0.31455697	     45.31032764	      0.79081440	    -15.95642119	    -31.12309516	      0.00000000	     77.41018367	     -5.76357047	      5.16434188	     93.95526806	      1.63982878	     -0.72968227	    -10.72271055	      0.00000000	    -48.65859993	      5.23200006	     -2.79139217	     89.89368013	     -6.00254410	     12.38437946	     32.02828787	     86.28471292	      0.00000000	      0.00000000	     89.92459026	     -7.85810170	     18.90980499	     27.15609970	     80.71827131	      0.00000000	      0.00000000
      7.88333333	    -26.99681768	      0.07135542	      4.18309711	     -0.30325650	      1.19660315	      0.05258450	     67.42692239	     -6.95482021	      0.52863996	     43.57340963	      0.76049946	    -16.81789949	    -30.79693662	      0.00000000	     78.31019761	     -5.29101487	      5.03169675	     95.37651564	      1.66463423	     -0.42611916	    -10.69064545	      0.00000000	    -48.68028896	      5.05852261	     -3.26987435	     89.89074792	     -6.03605971	     12.42228581	     31.72897936	     86.26294864	      0.00000000	      0.00000000	     89.92535397	     -7.78654868	     18.99339484	     27.09339153	     80.74901549	      0.00000000	      0.00000000
      7.89166667	    -26.96338100	     -0.04475896	      4.65353525	     -0.30293931	      1.19676297	      0.05239194	     66.09429048	     -7.16479305	      0.22276701	     41.77139514	      0.72904838	    -18.70800136	    -31.49046345	      0.00000000	     79.30876064	     -4.79705626	      5.46783627	     96.66143395	      1.68706028	      0.03572085	    -10.45699697	      0.00000000	    -48.69441786	      5.35811489	     -3.49636957	     89.88715309	     -6.11701521	     12.51850327	     31.63682876	     86.13315609	      0.00000000	      0.00000000	     89.92546544	     -7.77085553	     19.14077806	     27.21571569	     80.82393586	      0.00000000	      0.00000000
